<svg width="24" height="24" viewBox="0 0 24 24" fill="none" xmlns="http://www.w3.org/2000/svg">
<path d="M9 9V8C9 7.20435 9.31607 6.44129 9.87868 5.87868C10.4413 5.31607 11.2044 5 12 5C12.7956 5 13.5587 5.31607 14.1213 5.87868C14.6839 6.44129 15 7.20435 15 8V9" stroke="url(#paint0_linear_66_382)" stroke-width="2" stroke-linecap="round" stroke-linejoin="round"/>
<path d="M8 9H16C16.5956 9.89259 16.9409 10.9286 17 12V15C17 16.3261 16.4732 17.5979 15.5355 18.5355C14.5979 19.4732 13.3261 20 12 20C10.6739 20 9.40215 19.4732 8.46447 18.5355C7.52678 17.5979 7 16.3261 7 15V12C7.05907 10.9286 7.4044 9.89259 8 9Z" stroke="url(#paint1_linear_66_382)" stroke-width="2" stroke-linecap="round" stroke-linejoin="round"/>
<path d="M3 13H7" stroke="url(#paint2_linear_66_382)" stroke-width="2" stroke-linecap="round" stroke-linejoin="round"/>
<path d="M17 13H21" stroke="url(#paint3_linear_66_382)" stroke-width="2" stroke-linecap="round" stroke-linejoin="round"/>
<path d="M12 20V14" stroke="url(#paint4_linear_66_382)" stroke-width="2" stroke-linecap="round" stroke-linejoin="round"/>
<path d="M4 19L7.35 17" stroke="url(#paint5_linear_66_382)" stroke-width="2" stroke-linecap="round" stroke-linejoin="round"/>
<path d="M20.0004 19L16.6504 17" stroke="url(#paint6_linear_66_382)" stroke-width="2" stroke-linecap="round" stroke-linejoin="round"/>
<path d="M4 7L7.75 9.4" stroke="url(#paint7_linear_66_382)" stroke-width="2" stroke-linecap="round" stroke-linejoin="round"/>
<path d="M20 7L16.25 9.4" stroke="url(#paint8_linear_66_382)" stroke-width="2" stroke-linecap="round" stroke-linejoin="round"/>
<defs>
<linearGradient id="paint0_linear_66_382" x1="12" y1="5" x2="12" y2="9" gradientUnits="userSpaceOnUse">
<stop stop-color="#44C6B8"/>
<stop offset="1" stop-color="#3C82F6"/>
</linearGradient>
<linearGradient id="paint1_linear_66_382" x1="12" y1="9" x2="12" y2="20" gradientUnits="userSpaceOnUse">
<stop stop-color="#44C6B8"/>
<stop offset="1" stop-color="#3C82F6"/>
</linearGradient>
<linearGradient id="paint2_linear_66_382" x1="5" y1="13" x2="5" y2="14" gradientUnits="userSpaceOnUse">
<stop stop-color="#44C6B8"/>
<stop offset="1" stop-color="#3C82F6"/>
</linearGradient>
<linearGradient id="paint3_linear_66_382" x1="19" y1="13" x2="19" y2="14" gradientUnits="userSpaceOnUse">
<stop stop-color="#44C6B8"/>
<stop offset="1" stop-color="#3C82F6"/>
</linearGradient>
<linearGradient id="paint4_linear_66_382" x1="12.5" y1="14" x2="12.5" y2="20" gradientUnits="userSpaceOnUse">
<stop stop-color="#44C6B8"/>
<stop offset="1" stop-color="#3C82F6"/>
</linearGradient>
<linearGradient id="paint5_linear_66_382" x1="5.675" y1="17" x2="5.675" y2="19" gradientUnits="userSpaceOnUse">
<stop stop-color="#44C6B8"/>
<stop offset="1" stop-color="#3C82F6"/>
</linearGradient>
<linearGradient id="paint6_linear_66_382" x1="18.3254" y1="17" x2="18.3254" y2="19" gradientUnits="userSpaceOnUse">
<stop stop-color="#44C6B8"/>
<stop offset="1" stop-color="#3C82F6"/>
</linearGradient>
<linearGradient id="paint7_linear_66_382" x1="5.875" y1="7" x2="5.875" y2="9.4" gradientUnits="userSpaceOnUse">
<stop stop-color="#44C6B8"/>
<stop offset="1" stop-color="#3C82F6"/>
</linearGradient>
<linearGradient id="paint8_linear_66_382" x1="18.125" y1="7" x2="18.125" y2="9.4" gradientUnits="userSpaceOnUse">
<stop stop-color="#44C6B8"/>
<stop offset="1" stop-color="#3C82F6"/>
</linearGradient>
</defs>
</svg>
