<svg width="24" height="24" viewBox="0 0 24 24" fill="none" xmlns="http://www.w3.org/2000/svg">
<path fill-rule="evenodd" clip-rule="evenodd" d="M8.23517 2.49998C7.26316 2.50147 6.27878 2.74987 5.37567 3.27128C4.53612 3.75599 3.86509 4.42048 3.38311 5.18804C3.42021 5.21263 3.4606 5.23999 3.50401 5.27021C3.73377 5.43014 4.04892 5.67048 4.41113 6.00341C5.13595 6.66963 6.04918 7.70663 6.84179 9.20942C7.39116 10.251 7.73319 11.2331 7.94555 12.0738C8.32972 11.1673 8.86015 10.3122 9.58624 9.58611C9.89272 9.27962 10.2222 9.008 10.5688 8.76752C10.2592 8.33522 9.95062 7.84447 9.65845 7.29056C8.86634 5.78873 8.50527 4.41054 8.34246 3.4018C8.28646 3.05481 8.25381 2.75094 8.23517 2.49998ZM9.76032 2.70294C9.77602 2.84286 9.79652 2.99666 9.82332 3.16279C9.96502 4.0407 10.2822 5.25786 10.9852 6.59078C11.2753 7.14079 11.5821 7.61761 11.8855 8.0277C12.5469 7.72992 13.2391 7.51316 13.9311 7.35775C13.8247 6.67897 13.5937 6.0076 13.2288 5.37553C12.4394 4.00818 11.1735 3.08756 9.76032 2.70294ZM15.4107 7.11056C15.2752 6.2582 14.9843 5.41616 14.5278 4.62553C13.3418 2.57126 11.3014 1.31749 9.1175 1.05277C7.6132 0.870431 6.03817 1.15673 4.62567 1.97224C1.15856 3.97398 -0.0293517 8.40734 1.97238 11.8744C3.10912 13.8433 5.03021 15.0766 7.11087 15.409C7.09977 15.5059 7.08963 15.6023 7.0804 15.6982C6.96273 16.9213 6.9898 18.0928 7.06338 19.0552C7.20292 20.8801 8.62002 22.2972 10.4449 22.4367C11.4073 22.5103 12.5787 22.5374 13.8019 22.4197C15.8929 22.2185 18.2444 21.5835 19.914 19.9139C21.5836 18.2443 22.2187 15.8928 22.4198 13.8018C22.5375 12.5786 22.5104 11.4072 22.4368 10.4448C22.2973 8.61988 20.8802 7.20278 19.0553 7.06325C18.0929 6.98967 16.9215 6.9626 15.6983 7.08027C15.603 7.08944 15.507 7.09952 15.4107 7.11056ZM6.73989 13.7971C5.32681 13.4125 4.06079 12.4917 3.27142 11.1244C2.44269 9.68905 2.30332 8.04483 2.75057 6.57513C2.92116 6.69962 3.14294 6.87512 3.39605 7.10777C4.01159 7.67354 4.81251 8.57723 5.51502 9.9092C6.21805 11.2421 6.53526 12.4593 6.67695 13.3372C6.70377 13.5033 6.72426 13.6571 6.73989 13.7971ZM17.5041 8.50014L21 11.996C20.9979 11.4854 20.975 11.0008 20.9412 10.5592C20.8581 9.47245 20.0276 8.64197 18.9409 8.55888C18.4993 8.52512 18.0146 8.50218 17.5041 8.50014ZM20.889 14.0063L15.4938 8.61112C13.667 8.83189 11.8794 9.4143 10.6469 10.6468C9.41443 11.8792 8.83202 13.6669 8.61125 15.4937L14.0064 20.8889C15.8332 20.6681 17.6209 20.0857 18.8533 18.8532C20.0858 17.6207 20.6682 15.8331 20.889 14.0063ZM11.9961 20.9998L8.50027 17.504C8.50231 18.0145 8.52525 18.4992 8.55902 18.9408C8.64211 20.0275 9.47259 20.858 10.5593 20.9411C11.0009 20.9749 11.4856 20.9978 11.9961 20.9998ZM14.7198 11.7197C15.0127 11.4268 15.4875 11.4268 15.7804 11.7197L16.2501 12.1893L16.7198 11.7197C17.0127 11.4268 17.4875 11.4268 17.7804 11.7197C18.0733 12.0126 18.0733 12.4874 17.7804 12.7803L17.3108 13.25L17.7804 13.7197C18.0733 14.0126 18.0733 14.4874 17.7804 14.7803C17.4875 15.0732 17.0127 15.0732 16.7198 14.7803L16.2501 14.3106L15.8108 14.75L16.2804 15.2197C16.5733 15.5126 16.5733 15.9874 16.2804 16.2803C15.9875 16.5732 15.5127 16.5732 15.2198 16.2803L14.7501 15.8106L14.3108 16.25L14.7804 16.7197C15.0733 17.0126 15.0733 17.4874 14.7804 17.7803C14.4875 18.0732 14.0127 18.0732 13.7198 17.7803L13.2501 17.3106L12.7804 17.7803C12.4875 18.0732 12.0127 18.0732 11.7198 17.7803C11.4269 17.4874 11.4269 17.0126 11.7198 16.7197L12.1894 16.25L11.7198 15.7803C11.4269 15.4874 11.4269 15.0126 11.7198 14.7197C12.0127 14.4268 12.4875 14.4268 12.7804 14.7197L13.2501 15.1893L13.6894 14.75L13.2198 14.2803C12.9269 13.9874 12.9269 13.5126 13.2198 13.2197C13.5127 12.9268 13.9875 12.9268 14.2804 13.2197L14.7501 13.6893L15.1894 13.25L14.7198 12.7803C14.4269 12.4874 14.4269 12.0126 14.7198 11.7197Z" fill="url(#paint0_linear_164_174)"/>
<defs>
<linearGradient id="paint0_linear_164_174" x1="11.7501" y1="1" x2="11.7501" y2="22.5" gradientUnits="userSpaceOnUse">
<stop stop-color="#44C6B8"/>
<stop offset="1" stop-color="#1084FE"/>
</linearGradient>
</defs>
</svg>
