<svg width="30" height="30" viewBox="0 0 30 30" fill="none" xmlns="http://www.w3.org/2000/svg">
<g clip-path="url(#clip0_8_176)">
<path fill-rule="evenodd" clip-rule="evenodd" d="M6.45384 15C6.45384 14.0474 6.61206 13.134 6.89446 12.2774L1.95145 8.50269C0.988082 10.4587 0.445312 12.6627 0.445312 15C0.445312 17.3354 0.987415 19.538 1.94945 21.4927L6.88979 17.7107C6.61006 16.858 6.45384 15.948 6.45384 15Z" fill="#FBBC05"/>
<path fill-rule="evenodd" clip-rule="evenodd" d="M15.1325 6.33337C17.2021 6.33337 19.0715 7.06671 20.5402 8.26671L24.8129 4.00004C22.2092 1.73337 18.8712 0.333374 15.1325 0.333374C9.3283 0.333374 4.33989 3.65271 1.95117 8.50271L6.89418 12.2774C8.03313 8.82004 11.2797 6.33337 15.1325 6.33337Z" fill="#EB4335"/>
<path fill-rule="evenodd" clip-rule="evenodd" d="M15.1325 23.6667C11.2797 23.6667 8.03313 21.18 6.89418 17.7227L1.95117 21.4967C4.33989 26.3473 9.3283 29.6667 15.1325 29.6667C18.7149 29.6667 22.1351 28.3947 24.7021 26.0113L20.0101 22.384C18.6862 23.218 17.0192 23.6667 15.1325 23.6667Z" fill="#34A853"/>
<path fill-rule="evenodd" clip-rule="evenodd" d="M29.1527 15C29.1527 14.1334 29.0192 13.2 28.8189 12.3334H15.1328V18H23.0107C22.6168 19.932 21.5446 21.4174 20.0104 22.384L24.7024 26.0114C27.3989 23.5087 29.1527 19.7807 29.1527 15Z" fill="#4285F4"/>
</g>
<defs>
<clipPath id="clip0_8_176">
<rect width="30" height="30" fill="white"/>
</clipPath>
</defs>
</svg>
