<svg width="18" height="18" viewBox="0 0 18 18" fill="none" xmlns="http://www.w3.org/2000/svg">
<path fill-rule="evenodd" clip-rule="evenodd" d="M8.61714 2.01815C8.82803 1.80726 9.16993 1.80726 9.38082 2.01815L12.3808 5.01815C12.5917 5.22904 12.5917 5.57094 12.3808 5.78183C12.17 5.99271 11.828 5.99271 11.6171 5.78183L9.53898 3.70366V14.2963L11.6171 12.2182C11.828 12.0073 12.17 12.0073 12.3808 12.2182C12.5917 12.429 12.5917 12.7709 12.3808 12.9818L9.38082 15.9818C9.27955 16.0831 9.1422 16.14 8.99898 16.14C8.85576 16.14 8.71841 16.0831 8.61714 15.9818L5.61714 12.9818C5.40627 12.7709 5.40627 12.429 5.61714 12.2182C5.82803 12.0073 6.16993 12.0073 6.38082 12.2182L8.45898 14.2963V3.70366L6.38082 5.78183C6.16993 5.99271 5.82803 5.99271 5.61714 5.78183C5.40627 5.57094 5.40627 5.22904 5.61714 5.01815L8.61714 2.01815Z" fill="url(#paint0_linear_64_258)"/>
<defs>
<linearGradient id="paint0_linear_64_258" x1="8.99897" y1="1.85999" x2="8.99897" y2="16.14" gradientUnits="userSpaceOnUse">
<stop stop-color="#00AFBA"/>
<stop offset="1" stop-color="#3776E0"/>
</linearGradient>
</defs>
</svg>
