<svg width="83" height="171" viewBox="0 0 83 171" fill="none" xmlns="http://www.w3.org/2000/svg">
<path d="M67.0494 137.662C66.8557 136.845 66.6344 136.029 66.3842 135.229C65.8715 133.662 65.3008 131.994 64.608 130.459C63.2592 127.27 61.7363 124.467 60.0135 121.931C58.2877 119.397 56.3484 117.126 54.1221 115.023C51.7997 117.071 49.8998 119.566 48.7893 122.633C48.2537 124.142 47.9363 125.768 47.8539 127.545C47.8295 128.413 47.8768 129.301 47.9867 130.227C48.0416 130.689 48.1149 131.161 48.2049 131.638C48.3071 132.101 48.4277 132.569 48.565 133.045C49.6499 136.869 52.0013 140.538 55.3017 143.449C58.5885 146.366 62.8134 148.5 67.2494 149.45C67.6827 147.964 67.8933 146.418 67.9253 144.854C67.9406 144.077 67.9162 143.275 67.8536 142.471C67.7911 141.666 67.6888 140.861 67.553 140.058C67.4203 139.251 67.2509 138.451 67.0495 137.661L67.0494 137.662Z" fill="currentColor" stroke="black" stroke-width="0.390625"/>
<path d="M28.3237 115.078C28.3588 115.31 28.4061 115.537 28.4595 115.762L28.6228 116.441C28.7372 116.894 28.8624 117.349 28.9966 117.803C30.1059 121.421 32.0942 124.914 34.7048 127.795C35.7455 126.974 36.6503 126.009 37.4468 124.921C38.2479 123.829 38.933 122.619 39.5007 121.33C39.7845 120.686 40.0393 120.02 40.2636 119.341C40.3719 119.004 40.4879 118.652 40.5947 118.296C40.7015 117.941 40.8007 117.584 40.8922 117.22C41.0754 116.497 41.2279 115.762 41.35 115.015C41.4797 114.265 41.6079 113.48 41.6857 112.702C41.823 111.16 41.9497 109.577 41.8871 108.088C41.8948 107.319 41.8673 106.564 41.8032 105.822L41.7498 105.268C41.73 105.085 41.7239 104.893 41.7056 104.708C41.675 104.334 41.6354 103.965 41.5865 103.597C41.5377 103.231 41.4812 102.868 41.4156 102.508C41.3592 102.143 41.3103 101.774 41.2447 101.412C41.1806 101.049 41.1074 100.691 41.025 100.335C40.9838 100.157 40.9411 99.9796 40.8953 99.8041L40.7793 99.264C40.6207 98.5468 40.4208 97.8434 40.1919 97.1491C40.0011 96.4411 39.7738 95.7437 39.5098 95.0586C36.9555 95.7483 34.575 97.0041 32.5868 98.9879C31.5736 99.9858 30.742 101.133 30.0126 102.482C29.831 102.819 29.6586 103.167 29.4954 103.527C29.413 103.707 29.3336 103.891 29.2558 104.077C29.1795 104.263 29.1154 104.447 29.0483 104.637C28.7843 105.394 28.5585 106.198 28.3753 107.051C28.2884 107.475 28.1922 107.913 28.1434 108.342C28.0915 108.772 28.0503 109.208 28.0198 109.649C27.9908 110.09 27.9725 110.537 27.9649 110.987C27.9573 111.439 27.9573 111.895 27.9969 112.341C28.0625 113.244 28.1727 114.156 28.3237 115.078Z" fill="currentColor" stroke="black" stroke-width="0.390625"/>
<path d="M29.1527 91.1313C29.4807 90.5896 29.8241 90.0159 30.1262 89.4269C32.5584 84.7011 33.5502 79.5405 33.5014 74.423C32.4318 74.3528 31.3545 74.4108 30.2833 74.6168C29.2137 74.8212 28.1791 75.1752 27.1644 75.691C26.1512 76.2067 25.1701 76.8873 24.2347 77.7418C23.3223 78.5962 22.4998 79.6262 21.7323 80.8393C21.5461 81.1414 21.3478 81.4527 21.1891 81.7701C21.0274 82.0859 20.8717 82.4109 20.7237 82.7405C20.4277 83.4012 20.1607 84.0864 19.9241 84.7944C19.8646 84.9714 19.8066 85.1499 19.7517 85.3284L19.6129 85.8686C19.5244 86.2302 19.4435 86.598 19.3702 86.9687C19.2268 87.7103 19.0956 88.4702 19.0223 89.2377C18.9659 90.0022 18.9399 90.7789 18.9415 91.5616C18.943 91.9523 18.9506 92.3459 18.9644 92.7381C18.9933 93.1287 19.0346 93.5193 19.0803 93.91C19.1734 94.6912 19.2924 95.474 19.4389 96.2507C19.6083 97.0228 19.825 97.7842 20.0554 98.538C22.1382 98.0375 24.0682 96.919 25.7393 95.3596C25.9499 95.1642 26.1498 94.9644 26.3558 94.7538C26.5633 94.5432 26.7678 94.3265 26.9677 94.1037C27.3674 93.6567 27.7504 93.1851 28.1151 92.6877C28.4829 92.1918 28.8292 91.673 29.1527 91.1313Z" fill="currentColor" stroke="black" stroke-width="0.390625"/>
<path d="M20.4637 71.2912C21.3793 71.1172 22.2765 70.8182 23.192 70.4123C24.0999 70.0048 24.9895 69.486 25.844 68.8619C26.2728 68.5507 26.6863 68.2119 27.1014 67.8503C27.5301 67.4902 27.9482 67.1057 28.3541 66.6967C28.76 66.2878 29.1445 65.8636 29.5061 65.4272L29.7732 65.0976L30.0493 64.7665C30.2309 64.5453 30.4079 64.3194 30.5788 64.0921C30.9206 63.6358 31.2411 63.1689 31.5371 62.6913L31.7553 62.3312L31.9841 61.9726C32.1352 61.7315 32.2802 61.4889 32.419 61.2448C32.6983 60.755 32.9531 60.2545 33.185 59.7449C33.4276 59.2383 33.6779 58.7347 33.8885 58.2159C34.1067 57.7002 34.2836 57.1691 34.4713 56.6443C34.6682 56.1209 34.8406 55.5914 34.9901 55.0543C33.275 54.415 31.4104 54.2013 29.4757 54.5477C28.995 54.6362 28.4961 54.7537 28.02 54.917C27.5424 55.0802 27.0648 55.2801 26.5856 55.5197C26.1065 55.7593 25.6274 56.0354 25.1513 56.3528C24.6783 56.6717 24.1854 57.0242 23.7475 57.4316C23.2989 57.836 22.8655 58.2724 22.449 58.7362C22.2414 58.9682 22.037 59.2062 21.8371 59.4518C21.6402 59.6975 21.4358 59.9477 21.2649 60.2102C20.9109 60.732 20.5737 61.2783 20.2578 61.8444C20.0991 62.1282 19.9465 62.4151 19.7985 62.7081C19.649 63.001 19.504 63.297 19.3865 63.6022C19.1393 64.2095 18.912 64.8336 18.7075 65.4699C18.5046 66.1062 18.3062 66.7516 18.1887 67.4139C18.0575 68.0731 17.9492 68.7399 17.8622 69.4113C17.8195 69.747 17.7813 70.0827 17.7508 70.4183C17.734 70.7555 17.7233 71.0928 17.7188 71.43C18.6297 71.5154 19.5498 71.4651 20.4637 71.2912Z" fill="currentColor" stroke="black" stroke-width="0.390625"/>
<path d="M23.4724 46.9403C23.2802 47.4011 23.1016 47.868 22.9414 48.3395C24.1941 48.8522 25.5995 48.991 27.0477 48.782C27.7725 48.6782 28.5034 48.4829 29.2419 48.2067C29.9987 47.9381 30.7571 47.5857 31.5048 47.1478C34.5138 45.396 36.8848 42.7259 38.6169 39.7548C37.4954 38.9964 36.1861 38.5326 34.735 38.4593C34.0102 38.4227 33.2488 38.4853 32.4584 38.6546C32.0587 38.7355 31.6711 38.8576 31.2759 39.0056C30.8807 39.1536 30.4809 39.3306 30.0766 39.5366C28.4302 40.3453 27.0034 41.6164 25.743 43.1194C25.1509 43.89 24.6046 44.72 24.1179 45.5898C23.8615 46.0201 23.6693 46.481 23.4724 46.9403Z" fill="currentColor" stroke="black" stroke-width="0.390625"/>
<path d="M33.7505 29.3192C33.4636 29.6335 33.1874 29.957 32.9235 30.2912C32.7907 30.4575 32.661 30.6269 32.5344 30.7978L32.3467 31.0557L32.1758 31.3258C34.0145 32.7021 36.6894 33.0103 39.5152 32.1635C42.3976 31.3456 44.9625 29.6274 46.998 27.4654C46.2214 26.6079 45.2296 25.9609 44.0409 25.6099C43.4473 25.4345 42.8034 25.3338 42.1152 25.3154C41.7704 25.3063 41.4164 25.3185 41.0502 25.3521C40.6839 25.3856 40.3253 25.4604 39.9485 25.5489C39.1977 25.7305 38.4486 25.996 37.7115 26.3362C37.3377 26.501 36.9928 26.7086 36.6449 26.9237C36.2985 27.1404 35.9568 27.3753 35.6226 27.6241C35.2884 27.8728 34.9604 28.1368 34.6399 28.4145C34.3286 28.6998 34.0389 29.0064 33.7505 29.3192Z" fill="currentColor" stroke="black" stroke-width="0.390625"/>
<path d="M64.9755 153.278C63.8051 153.252 62.6241 153.27 61.44 153.311C60.2727 153.308 59.0978 153.343 57.9168 153.416C56.7479 153.461 55.5883 153.51 54.4164 153.616C49.7762 153.957 45.6379 154.657 42.2141 155.901C38.7961 157.143 36.0266 159.02 34.3359 161.598C35.607 162.538 36.9437 163.411 38.2895 164.255C39.6719 165.054 41.0848 165.804 42.5129 166.496C43.9762 167.14 45.4411 167.752 46.9258 168.274C47.6781 168.518 48.4318 168.749 49.1825 168.965C49.5579 169.074 49.9333 169.177 50.3086 169.278C50.684 169.377 51.0548 169.481 51.4378 169.554C52.1977 169.714 52.956 169.858 53.7083 169.988C54.0852 170.052 54.459 170.113 54.8329 170.171C55.2067 170.226 55.5759 170.287 55.9544 170.316C57.4604 170.456 58.9375 170.546 60.3825 170.551C61.8412 170.516 63.2618 170.418 64.6321 170.259C66.01 170.067 67.3451 169.782 68.6145 169.455C68.9319 169.373 69.2432 169.287 69.5499 169.197C69.8581 169.096 70.1602 168.993 70.4562 168.886C71.0483 168.672 71.619 168.448 72.1637 168.213C73.2563 167.743 74.2527 167.249 75.1651 166.649C76.0761 166.068 76.8955 165.456 77.6264 164.819C77.9926 164.499 78.3359 164.18 78.6579 163.843C78.9798 163.498 79.282 163.149 79.5612 162.796C81.8057 159.969 82.7015 156.889 82.645 153.793C77.9422 153.552 73.2289 153.374 68.509 153.302C67.3417 153.258 66.1561 153.27 64.9751 153.278L64.9755 153.278Z" fill="currentColor" stroke="black" stroke-width="0.390625"/>
<path d="M44.4905 140.472C41.4342 137.873 38.2846 135.36 35.0132 133.065C34.6042 132.778 34.1755 132.511 33.7696 132.224C33.3637 131.939 32.9532 131.66 32.5367 131.387C31.7066 130.84 30.8384 130.334 30.0114 129.806C29.1721 129.289 28.307 128.803 27.4326 128.341C26.5842 127.86 25.7175 127.409 24.8325 126.991C24.3931 126.779 23.9414 126.586 23.5157 126.389C23.09 126.193 22.6658 126.006 22.2416 125.831C21.3947 125.48 20.5555 125.173 19.7239 124.909C19.3043 124.78 18.9045 124.651 18.5062 124.535C18.1065 124.42 17.7097 124.316 17.3145 124.223C16.5257 124.037 15.7475 123.896 14.9845 123.803C14.2231 123.708 13.4693 123.666 12.7476 123.664C12.0304 123.661 11.3285 123.708 10.6495 123.808C9.28992 124.006 8.01277 124.413 6.85156 125.045C8.96336 129.583 11.9602 133.801 15.4879 137.176C19.0386 140.541 23.1098 143.04 27.15 144.398C31.2316 145.732 34.8391 145.806 37.7535 145.017C40.6923 144.21 42.9096 142.593 44.4905 140.472Z" fill="currentColor" stroke="black" stroke-width="0.390625"/>
<path d="M9.44632 111.312C10.7098 112.406 11.993 113.256 13.2305 113.892C13.8424 114.213 14.4848 114.464 15.1028 114.67C15.7238 114.875 16.3326 115.027 16.9308 115.131C19.3188 115.546 21.5069 115.172 23.4249 114.2C23.1136 113.451 22.8008 112.702 22.4514 111.97C22.2774 111.602 22.0989 111.239 21.9128 110.877C21.7342 110.512 21.5664 110.145 21.3833 109.783C21.0201 109.058 20.634 108.346 20.2236 107.645C19.8375 106.936 19.4423 106.234 19.0151 105.55C18.803 105.207 18.5832 104.868 18.3589 104.532C18.1316 104.198 17.9317 103.856 17.7074 103.525C17.2679 102.86 16.8041 102.208 16.3158 101.577L15.9465 101.105L15.591 100.634C15.3514 100.322 15.1057 100.014 14.854 99.7121C14.352 99.1078 13.8255 98.5219 13.2777 97.9589C12.2234 96.8221 11.1507 95.8257 10.0444 94.9819C9.48441 94.5607 8.95187 94.1716 8.40867 93.8222C7.86547 93.4727 7.31765 93.1615 6.76836 92.8914C4.56804 91.808 2.33125 91.3701 0.214844 91.7027C0.320129 92.6594 0.455931 93.6177 0.620739 94.5683C0.703138 95.0444 0.791638 95.5189 0.889294 95.9904C0.999157 96.4604 1.12428 96.9273 1.25093 97.3927C1.50728 98.3219 1.79108 99.239 2.10237 100.138C2.43196 101.033 2.81495 101.905 3.2071 102.755C3.9685 104.461 4.96186 106.038 5.98573 107.485C6.48776 108.211 7.07523 108.882 7.65198 109.522C8.23335 110.161 8.83288 110.758 9.44632 111.312Z" fill="currentColor" stroke="black" stroke-width="0.390625"/>
<path d="M2.43722 72.847L2.51657 73.4223C2.54861 73.613 2.58828 73.8037 2.6249 73.9929C2.70272 74.3714 2.78512 74.7467 2.87514 75.1175C3.05367 75.8591 3.25814 76.5823 3.48702 77.2843C3.7037 77.9862 4.00124 78.6667 4.30182 79.3198C4.60547 79.9744 4.93354 80.6015 5.286 81.1997C5.9696 82.3959 6.80577 83.4091 7.63584 84.2468C8.47506 85.083 9.34331 85.7452 10.2421 86.2412C12.0731 87.2299 13.953 87.555 15.7686 87.323C15.7473 86.9782 15.7213 86.6333 15.6893 86.2885C15.6557 85.9436 15.616 85.6003 15.5931 85.2539C15.5367 84.5643 15.4558 83.8761 15.3536 83.191C15.1201 81.8223 14.9202 80.4627 14.583 79.1277C14.5006 78.7935 14.4121 78.4624 14.319 78.1313C14.2229 77.8002 14.1496 77.4721 14.055 77.1456C13.8735 76.491 13.6675 75.8456 13.4386 75.2077C12.9579 73.9321 12.4895 72.6977 11.8868 71.5136C11.5892 70.9216 11.2749 70.3585 10.9453 69.8229C10.634 69.2889 10.312 68.7853 9.97176 68.3108C9.29274 67.3617 8.55727 66.5301 7.77602 65.8297C6.98715 65.1293 6.19368 64.5632 5.34528 64.1406C4.49993 63.7179 3.61645 63.4402 2.70856 63.3242C2.62922 63.7179 2.55445 64.1146 2.48578 64.5114C2.4278 64.9096 2.38508 65.3094 2.34235 65.7092C2.26148 66.5103 2.20502 67.3129 2.17298 68.1124C2.12873 68.912 2.1623 69.7116 2.21112 70.502C2.26148 71.2923 2.33652 72.0749 2.43722 72.847Z" fill="currentColor" stroke="black" stroke-width="0.390625"/>
<path d="M11.4096 59.2023C11.8445 59.9545 12.3373 60.5954 12.8745 61.1264C13.4131 61.6574 13.9929 62.077 14.6139 62.3914C15.238 62.7072 15.8911 62.9163 16.5595 63.0231C17.0538 61.0349 17.2781 58.9735 17.3651 56.9516C17.3789 56.445 17.3743 55.9384 17.3529 55.4318C17.33 54.9268 17.3254 54.4324 17.2812 53.9365C17.2034 52.9462 17.0447 51.9666 16.8189 51.0144C16.4206 49.13 15.7324 47.5217 14.8398 46.266C13.9746 45.0193 12.8775 44.116 11.6065 43.6445C9.72506 47.859 9.16659 52.725 10.3248 56.6129C10.5796 57.5803 10.9809 58.45 11.4096 59.2023Z" fill="currentColor" stroke="black" stroke-width="0.390625"/>
<path d="M18.8787 39.7614C19.0954 40.4755 19.3807 41.1073 19.7225 41.6597C20.4092 42.7629 21.3278 43.538 22.3928 43.9912C23.9416 40.854 25.0112 37.4146 25.0066 34.0791C25.0356 32.4327 24.7717 30.9678 24.2636 29.7518C23.7799 28.5524 23.0368 27.5942 22.0693 26.9609C21.9213 27.1547 21.7748 27.35 21.6329 27.5484C21.488 27.7452 21.3506 27.9482 21.227 28.1572C20.9707 28.5723 20.7281 28.9964 20.4992 29.4252C20.2703 29.854 20.0567 30.2889 19.8583 30.7268C19.7607 30.9465 19.6615 31.1647 19.5745 31.3875C19.4921 31.6118 19.4128 31.8376 19.338 32.0635C19.0405 32.9668 18.81 33.8732 18.659 34.7643C18.5766 35.2068 18.5415 35.66 18.5201 36.1025C18.4988 36.5465 18.4988 36.9829 18.5186 37.4132C18.5583 38.2753 18.6788 39.0565 18.8787 39.7614Z" fill="currentColor" stroke="black" stroke-width="0.390625"/>
<path d="M45.2154 20.4845C46.2453 20.8523 47.4355 21.011 48.7188 20.9194C49.3536 20.8614 50.0188 20.8004 50.6536 20.6615C51.2929 20.5288 51.914 20.335 52.5228 20.1046C53.1469 19.8971 53.7511 19.6392 54.331 19.3371C54.6224 19.1875 54.9016 19.0182 55.1839 18.8518C55.4708 18.6947 55.75 18.5253 56.0232 18.3468C55.5334 17.48 54.8131 16.7446 53.8656 16.2151C53.388 15.9435 52.8692 15.7497 52.2955 15.617C51.7217 15.4827 51.0946 15.4141 50.4171 15.4141C50.0784 15.4141 49.735 15.4339 49.3902 15.469C49.0469 15.5071 48.7142 15.5804 48.3724 15.6597C47.6949 15.823 47.0128 16.0519 46.343 16.3342C46.0027 16.47 45.6854 16.6439 45.368 16.8255C45.0506 17.0071 44.7378 17.2024 44.4311 17.4084C43.8223 17.8265 43.2165 18.2629 42.6992 18.7954C43.3386 19.566 44.193 20.1259 45.2154 20.4845Z" fill="currentColor" stroke="black" stroke-width="0.390625"/>
<path d="M55.089 13.2093C55.884 13.6731 56.8666 14.021 57.9668 14.1584C58.243 14.1934 58.5192 14.2163 58.7954 14.2255C59.0715 14.2347 59.3477 14.2301 59.633 14.2347C60.1976 14.2316 60.7607 14.1828 61.3161 14.0882C62.4147 13.87 63.5332 13.6045 64.5601 13.1284C64.2824 12.3243 63.7895 11.601 63.077 11.0212C62.7214 10.7313 62.3095 10.478 61.8441 10.2674C61.6106 10.1621 61.3649 10.0675 61.104 9.9851C60.9743 9.9439 60.8401 9.90423 60.7043 9.87066C60.57 9.84167 60.4327 9.8142 60.2907 9.79131C59.7262 9.69976 59.1387 9.66619 58.539 9.6845C58.2384 9.69366 57.9363 9.71654 57.6311 9.75164C57.4786 9.76995 57.326 9.78978 57.1734 9.8142C57.0238 9.84472 56.8743 9.87982 56.7248 9.91644C56.1266 10.066 55.5285 10.2628 54.9441 10.5009C54.6511 10.6199 54.3627 10.7496 54.0789 10.8884C53.8012 11.041 53.5311 11.2058 53.2656 11.3767C53.6715 12.1274 54.297 12.7484 55.089 13.2093Z" fill="currentColor" stroke="black" stroke-width="0.390625"/>
<path d="M65.96 6.26097C64.9652 6.34489 63.9459 6.57682 62.9922 6.94456C63.4271 8.2446 64.6462 9.3112 66.3812 9.82085C66.5978 9.88494 66.8191 9.93835 67.0419 9.98107C67.2662 10.0207 67.492 10.0589 67.7194 10.0986C68.1787 10.1688 68.6425 10.2023 69.1064 10.1977C69.5703 10.1932 70.0357 10.152 70.495 10.0757C70.9603 10.0253 71.4227 9.9414 71.8743 9.82391C71.7477 9.14641 71.4349 8.50555 70.9283 7.95012C70.675 7.67241 70.3729 7.41605 70.0234 7.18566C69.6725 6.95373 69.2803 6.78438 68.8378 6.63328C68.3953 6.4868 67.9269 6.38151 67.4432 6.31895C67.2006 6.28691 66.9549 6.26555 66.7062 6.25334C66.459 6.23808 66.2073 6.23655 65.96 6.26097Z" fill="currentColor" stroke="black" stroke-width="0.390625"/>
<path d="M71.543 4.65155C71.6437 5.23139 71.9183 5.77764 72.341 6.25373C72.5531 6.49329 72.8018 6.70846 73.0872 6.91291C73.374 7.12501 73.696 7.31881 74.0531 7.48667C74.7657 7.82388 75.5393 8.02835 76.3343 8.10768C77.1338 8.22822 77.9532 8.23586 78.7543 8.11836C78.6917 6.94192 77.9685 5.82039 76.5265 5.0727C76.3465 4.97962 76.1603 4.89112 75.968 4.81787C75.7773 4.75073 75.582 4.69275 75.3806 4.6424C74.9793 4.54169 74.5612 4.47455 74.1324 4.43793C73.7052 4.40131 73.2673 4.39673 72.8309 4.42267C72.3975 4.45014 71.9672 4.54931 71.543 4.65155Z" fill="currentColor" stroke="black" stroke-width="0.390625"/>
<path d="M77.0701 2.17176C76.7649 2.28009 76.4781 2.40674 76.2156 2.55018C75.9516 2.69208 75.7121 2.85078 75.5 3.04303C75.6144 3.11169 75.7335 3.17273 75.8586 3.23529C75.9837 3.3009 76.1149 3.36194 76.2492 3.4184C76.5193 3.53131 76.8062 3.62745 77.1083 3.70069C77.7125 3.8487 78.3717 3.91431 79.0675 3.87463C80.4576 3.8548 81.721 3.47026 82.6503 2.82178C81.8126 2.17788 80.5308 1.76741 79.0858 1.7735C78.3656 1.81623 77.6805 1.95662 77.0701 2.17176Z" fill="currentColor" stroke="black" stroke-width="0.390625"/>
<path d="M30.4509 30.0734C30.6752 29.7713 30.9224 29.4844 31.1452 29.1792C31.371 28.8771 31.5862 28.5658 31.7906 28.25C32.2041 27.6198 32.552 26.9453 32.9091 26.2953C33.6018 24.98 34.0718 23.5579 34.3861 22.1832C34.5326 21.4874 34.6089 20.8191 34.6196 20.1843C34.6257 19.8669 34.6135 19.5587 34.5875 19.2596C34.5662 18.9651 34.5296 18.6828 34.4761 18.4097C34.2625 17.3156 33.791 16.3833 33.0769 15.6875C32.7656 15.9652 32.462 16.2521 32.1675 16.5481C31.8715 16.8426 31.6106 17.1691 31.3481 17.4911C30.8278 18.1396 30.3517 18.8171 29.9321 19.5083C29.7154 19.8486 29.546 20.2194 29.3751 20.5795C29.2073 20.9411 29.0562 21.3058 28.9219 21.6705C28.6564 22.4029 28.4397 23.1216 28.3345 23.8556C27.9133 26.8005 28.8014 28.9246 30.4509 30.0734Z" fill="currentColor" stroke="black" stroke-width="0.390625"/>
<path d="M39.1162 20.1488C39.3589 19.9367 39.5908 19.7124 39.8227 19.4881C40.0608 19.2699 40.2912 19.0456 40.5155 18.8121C40.961 18.3467 41.3745 17.8523 41.7499 17.3351C41.933 17.0742 42.1161 16.8148 42.2977 16.5569C42.4747 16.2975 42.6425 16.0319 42.7982 15.7634C43.1094 15.2233 43.378 14.6633 43.5932 14.0895C43.8022 13.5066 43.9823 12.9818 44.0845 12.4523C44.1898 11.9289 44.234 11.4238 44.2172 10.9447C44.1852 9.98644 43.9151 9.13195 43.4131 8.44531C42.2351 9.22047 41.1121 10.1207 40.2499 11.2026C39.8105 11.7336 39.4153 12.2844 39.0765 12.8475C38.9041 13.1252 38.7576 13.4196 38.6264 13.7172C38.4952 14.0132 38.3792 14.3108 38.2785 14.6083C37.8803 15.8031 37.7734 16.8712 37.9367 17.8111C38.1076 18.7557 38.5196 19.5445 39.1162 20.1488Z" fill="currentColor" stroke="black" stroke-width="0.390625"/>
<path d="M50.0573 11.3404C50.1489 11.2473 50.2374 11.1542 50.3243 11.0581C50.4144 10.9681 50.5044 10.8765 50.5914 10.7834C50.7653 10.5973 50.9316 10.4065 51.0888 10.2097C51.4046 9.81602 51.6854 9.40098 51.925 8.96914C52.1676 8.54035 52.3507 8.10399 52.4941 7.69809C52.6391 7.29372 52.7321 6.89851 52.7733 6.51555C52.8557 5.74957 52.7337 5.03852 52.4071 4.42969C51.8929 4.66315 51.3863 4.92559 50.9103 5.22469C50.4433 5.54207 49.9993 5.88692 49.5873 6.25465C49.1753 6.62239 48.7969 7.01301 48.4612 7.41891C48.2903 7.6188 48.1393 7.83547 48.0004 8.05672C47.8615 8.27645 47.7334 8.50074 47.6174 8.72656C46.6958 10.5378 46.7782 12.1216 47.5869 13.2523C48.4872 12.7198 49.331 12.0819 50.0573 11.3404Z" fill="currentColor" stroke="black" stroke-width="0.390625"/>
<path d="M56.5823 8.05695C56.9729 7.84333 57.3482 7.60375 57.7038 7.34133C58.0578 7.07887 58.3919 6.79203 58.6987 6.48531C58.8528 6.3312 58.9977 6.17251 59.1381 6.00922C59.2816 5.8551 59.4174 5.69489 59.544 5.53008C60.5603 4.21172 60.8563 2.83844 60.4351 1.73828C59.5257 2.0343 58.6422 2.44933 57.861 2.95593C57.0965 3.50371 56.4328 4.14156 55.9368 4.83734C55.6881 5.18524 55.4943 5.5316 55.3509 5.86882C55.212 6.2152 55.1266 6.56004 55.0869 6.88812C55.0091 7.54578 55.119 8.15004 55.3921 8.67188C55.801 8.49487 56.1916 8.27058 56.5823 8.05695Z" fill="currentColor" stroke="black" stroke-width="0.390625"/>
<path d="M64.4611 4.84176C64.7434 4.67696 65.012 4.49233 65.2607 4.2909C65.3858 4.19019 65.5063 4.08491 65.6208 3.97657C65.7383 3.87433 65.8497 3.76752 65.9565 3.65765C66.8049 2.77265 67.1177 1.79 66.8873 0.949219C66.2052 1.09112 65.5338 1.32153 64.928 1.62824C64.3314 1.96699 63.7989 2.38051 63.3808 2.85199C62.5431 3.795 62.3325 4.77918 62.6346 5.59703C63.2785 5.42613 63.898 5.17137 64.4611 4.84176Z" fill="currentColor" stroke="black" stroke-width="0.390625"/>
<path d="M70.4441 3.31914C70.9522 3.09179 71.4206 2.79731 71.8158 2.43871C72.208 2.07098 72.4949 1.71391 72.6627 1.33703C72.8321 0.961663 72.8855 0.577148 72.8214 0.210938C72.5269 0.238404 72.2339 0.285707 71.9456 0.349792C71.6602 0.426085 71.3825 0.526792 71.1155 0.642761C70.5814 0.873167 70.0962 1.17225 69.701 1.53233C69.3058 1.89244 69.0403 2.27542 68.8984 2.65843C68.7565 3.04448 68.7382 3.4412 68.8297 3.79979C69.3821 3.69146 69.936 3.55261 70.4441 3.31914Z" fill="currentColor" stroke="black" stroke-width="0.390625"/>
</svg>
