<svg width="19" height="19" viewBox="0 0 19 19" fill="none" xmlns="http://www.w3.org/2000/svg">
<path d="M15.0426 3.95831L10.7676 8.23331" stroke="url(#paint0_linear_64_271)" stroke-linecap="round" stroke-linejoin="round"/>
<path d="M15.0423 3.95831H11.084" stroke="url(#paint1_linear_64_271)" stroke-linecap="round" stroke-linejoin="round"/>
<path d="M15.041 3.95831V7.91665" stroke="url(#paint2_linear_64_271)" stroke-linecap="round" stroke-linejoin="round"/>
<path d="M3.95898 11.0833C3.95898 12.1331 4.37602 13.14 5.11835 13.8823C5.86068 14.6246 6.8675 15.0417 7.91732 15.0417C8.96713 15.0417 9.97395 14.6246 10.7163 13.8823C11.4586 13.14 11.8757 12.1331 11.8757 11.0833C11.8757 10.0335 11.4586 9.0267 10.7163 8.28437C9.97395 7.54204 8.96713 7.125 7.91732 7.125C6.8675 7.125 5.86068 7.54204 5.11835 8.28437C4.37602 9.0267 3.95898 10.0335 3.95898 11.0833Z" stroke="url(#paint3_linear_64_271)" stroke-linecap="round" stroke-linejoin="round"/>
<defs>
<linearGradient id="paint0_linear_64_271" x1="12.9051" y1="3.95831" x2="12.9051" y2="8.23331" gradientUnits="userSpaceOnUse">
<stop stop-color="#44C6B8"/>
<stop offset="1" stop-color="#3776E0"/>
</linearGradient>
<linearGradient id="paint1_linear_64_271" x1="13.0632" y1="3.95831" x2="13.0632" y2="4.95831" gradientUnits="userSpaceOnUse">
<stop stop-color="#44C6B8"/>
<stop offset="1" stop-color="#3776E0"/>
</linearGradient>
<linearGradient id="paint2_linear_64_271" x1="15.541" y1="3.95831" x2="15.541" y2="7.91665" gradientUnits="userSpaceOnUse">
<stop stop-color="#44C6B8"/>
<stop offset="1" stop-color="#3776E0"/>
</linearGradient>
<linearGradient id="paint3_linear_64_271" x1="7.91732" y1="7.125" x2="7.91732" y2="15.0417" gradientUnits="userSpaceOnUse">
<stop stop-color="#44C6B8"/>
<stop offset="1" stop-color="#3776E0"/>
</linearGradient>
</defs>
</svg>
