<svg width="24" height="24" viewBox="0 0 24 24" fill="none" xmlns="http://www.w3.org/2000/svg">
<path d="M18.3052 12.8089L17.7553 12.2989L18.3052 12.8089ZM11.2342 5.73783L11.7442 6.28773L11.2342 5.73783ZM21.6626 4.27232L22.4063 4.36958L21.6626 4.27232ZM19.7707 2.38046L19.868 3.12413V3.12413L19.7707 2.38046ZM6.49605 12.6506L7.16948 12.9808L6.49605 12.6506ZM11.3924 17.547L11.0623 16.8736V16.8736L11.3924 17.547ZM8.22899 10.1572C7.93609 9.86432 7.46122 9.86432 7.16833 10.1572C6.87543 10.4501 6.87543 10.925 7.16833 11.2179L7.69866 10.6875L8.22899 10.1572ZM12.8252 16.8747C13.1181 17.1676 13.5929 17.1676 13.8858 16.8747C14.1787 16.5818 14.1787 16.107 13.8858 15.8141L13.3555 16.3444L12.8252 16.8747ZM6.46122 18.6425C6.75411 18.3496 6.75411 17.8747 6.46122 17.5818C6.16833 17.2889 5.69345 17.2889 5.40056 17.5818L5.93089 18.1122L6.46122 18.6425ZM2.57213 20.4103C2.27924 20.7032 2.27924 21.178 2.57213 21.4709C2.86503 21.7638 3.3399 21.7638 3.63279 21.4709L3.10246 20.9406L2.57213 20.4103ZM4.3399 16.5212C4.63279 16.2283 4.63279 15.7534 4.3399 15.4605C4.04701 15.1676 3.57213 15.1676 3.27924 15.4605L3.80957 15.9908L4.3399 16.5212ZM1.86503 16.8747C1.57213 17.1676 1.57213 17.6425 1.86503 17.9354C2.15792 18.2283 2.63279 18.2283 2.92569 17.9354L2.39536 17.4051L1.86503 16.8747ZM8.58254 20.7638C8.87543 20.4709 8.87543 19.996 8.58254 19.7032C8.28965 19.4103 7.81477 19.4103 7.52188 19.7032L8.05221 20.2335L8.58254 20.7638ZM6.10767 21.1174C5.81477 21.4103 5.81477 21.8851 6.10767 22.178C6.40056 22.4709 6.87543 22.4709 7.16833 22.178L6.638 21.6477L6.10767 21.1174ZM10.5978 21.082L11.3403 20.9759V20.9759L10.5978 21.082ZM15.7597 17.6172L16.5021 17.5111V17.5111L15.7597 17.6172ZM2.96102 13.4453L3.06709 12.7028L3.06709 12.7028L2.96102 13.4453ZM6.42584 8.2834L6.31978 9.02586L6.31978 9.02586L6.42584 8.2834ZM9.2216 17.1603L9.75193 16.63L7.41308 14.2911L6.88275 14.8215L6.35242 15.3518L8.69127 17.6906L9.2216 17.1603ZM18.3052 12.8089L17.7553 12.2989C15.8617 14.3406 12.787 16.028 11.0623 16.8736L11.3924 17.547L11.7226 18.2204C13.4628 17.3673 16.7585 15.5795 18.8551 13.3189L18.3052 12.8089ZM6.49605 12.6506L7.16948 12.9808C8.01501 11.256 9.70243 8.18137 11.7442 6.28773L11.2342 5.73783L10.7241 5.18793C8.46352 7.28458 6.67577 10.5802 5.82263 12.3205L6.49605 12.6506ZM21.6626 4.27232L20.9189 4.17506C20.6151 6.49841 19.8077 10.086 17.7553 12.2989L18.3052 12.8089L18.8551 13.3189C21.2506 10.7361 22.0977 6.72859 22.4063 4.36958L21.6626 4.27232ZM11.2342 5.73783L11.7442 6.28773C13.9571 4.23532 17.5446 3.42799 19.868 3.12413L19.7707 2.38046L19.6735 1.6368C17.3145 1.94532 13.307 2.79243 10.7241 5.18793L11.2342 5.73783ZM21.6626 4.27232L22.4063 4.36958C22.6173 2.75571 21.2873 1.42572 19.6735 1.6368L19.7707 2.38046L19.868 3.12413C20.505 3.04082 21.0022 3.5381 20.9189 4.17506L21.6626 4.27232ZM6.88275 14.8215L7.41308 14.2911C7.0499 13.9279 6.96116 13.4057 7.16948 12.9808L6.49605 12.6506L5.82263 12.3205C5.31443 13.3571 5.56462 14.564 6.35242 15.3518L6.88275 14.8215ZM9.2216 17.1603L8.69127 17.6906C9.47906 18.4784 10.686 18.7286 11.7226 18.2204L11.3924 17.547L11.0623 16.8736C10.6374 17.0819 10.1151 16.9932 9.75193 16.63L9.2216 17.1603ZM7.69866 10.6875L7.16833 11.2179L12.8252 16.8747L13.3555 16.3444L13.8858 15.8141L8.22899 10.1572L7.69866 10.6875ZM5.93089 18.1122L5.40056 17.5818L2.57213 20.4103L3.10246 20.9406L3.63279 21.4709L6.46122 18.6425L5.93089 18.1122ZM3.80957 15.9908L3.27924 15.4605L1.86503 16.8747L2.39536 17.4051L2.92569 17.9354L4.3399 16.5212L3.80957 15.9908ZM8.05221 20.2335L7.52188 19.7032L6.10767 21.1174L6.638 21.6477L7.16833 22.178L8.58254 20.7638L8.05221 20.2335ZM13.7091 7.50556L13.1787 6.97523C12.1048 8.04917 12.1048 9.79037 13.1787 10.8643L13.7091 10.334L14.2394 9.80366C13.7512 9.3155 13.7512 8.52404 14.2394 8.03589L13.7091 7.50556ZM13.7091 10.334L13.1787 10.8643C14.2527 11.9383 15.9939 11.9383 17.0678 10.8643L16.5375 10.334L16.0072 9.80366C15.519 10.2918 14.7275 10.2918 14.2394 9.80366L13.7091 10.334ZM16.5375 10.334L17.0678 10.8643C18.1418 9.79038 18.1418 8.04917 17.0678 6.97523L16.5375 7.50556L16.0072 8.03589C16.4953 8.52404 16.4953 9.3155 16.0072 9.80366L16.5375 10.334ZM16.5375 7.50556L17.0678 6.97523C15.9939 5.90129 14.2527 5.90129 13.1787 6.97523L13.7091 7.50556L14.2394 8.03589C14.7275 7.54773 15.519 7.54773 16.0072 8.03589L16.5375 7.50556ZM15.4768 18.4657L14.9465 17.9354L11.7645 21.1174L12.2949 21.6477L12.8252 22.178L16.0072 18.996L15.4768 18.4657ZM10.5978 21.082L11.3403 20.9759L10.916 18.0061L10.1735 18.1122L9.43107 18.2182L9.85533 21.1881L10.5978 21.082ZM15.4768 15.6373L14.7344 15.7434L15.0172 17.7233L15.7597 17.6172L16.5021 17.5111L16.2193 15.5312L15.4768 15.6373ZM12.2949 21.6477L11.7645 21.1174C11.6188 21.263 11.3694 21.1799 11.3403 20.9759L10.5978 21.082L9.85533 21.1881C10.0593 22.6157 11.8055 23.1977 12.8252 22.178L12.2949 21.6477ZM15.4768 18.4657L16.0072 18.996C16.3967 18.6066 16.58 18.0564 16.5021 17.5111L15.7597 17.6172L15.0172 17.7233C15.0283 17.8011 15.0021 17.8797 14.9465 17.9354L15.4768 18.4657ZM5.57731 8.56624L5.04698 8.03591L1.865 11.2179L2.39533 11.7482L2.92566 12.2786L6.10764 9.09657L5.57731 8.56624ZM2.96102 13.4453L2.85495 14.1877L5.8248 14.612L5.93087 13.8695L6.03693 13.1271L3.06709 12.7028L2.96102 13.4453ZM8.40574 8.56624L8.51181 7.82378L6.53191 7.54094L6.42584 8.2834L6.31978 9.02586L8.29967 9.3087L8.40574 8.56624ZM2.39533 11.7482L1.865 11.2179C0.8453 12.2376 1.42737 13.9838 2.85495 14.1877L2.96102 13.4453L3.06709 12.7028C2.86314 12.6737 2.77999 12.4242 2.92566 12.2786L2.39533 11.7482ZM5.57731 8.56624L6.10764 9.09657C6.16329 9.04093 6.24188 9.01473 6.31978 9.02586L6.42584 8.2834L6.53191 7.54094C5.98662 7.46304 5.43648 7.64642 5.04698 8.03591L5.57731 8.56624Z" fill="url(#paint0_linear_65_359)"/>
<defs>
<linearGradient id="paint0_linear_65_359" x1="21.1939" y1="2.84916" x2="3.10246" y2="20.9406" gradientUnits="userSpaceOnUse">
<stop stop-color="#44C6B8"/>
<stop offset="1" stop-color="#3C82F6"/>
</linearGradient>
</defs>
</svg>
