<svg width="18" height="18" viewBox="0 0 18 18" fill="none" xmlns="http://www.w3.org/2000/svg">
<ellipse cx="3.14286" cy="3.14286" rx="3.14286" ry="3.14286" transform="matrix(-1 0 0 1 12.1445 2.125)" stroke="url(#paint0_linear_64_279)" stroke-width="1.5"/>
<path d="M3.5 13.0736C3.5 12.3976 3.92496 11.7946 4.56157 11.5673C7.43175 10.5422 10.5683 10.5422 13.4384 11.5673C14.075 11.7946 14.5 12.3976 14.5 13.0736V14.1073C14.5 15.0402 13.6737 15.7569 12.75 15.625L12.4421 15.581C10.159 15.2548 7.84104 15.2548 5.55789 15.581L5.24995 15.625C4.32634 15.7569 3.5 15.0402 3.5 14.1073V13.0736Z" stroke="url(#paint1_linear_64_279)" stroke-width="1.5"/>
<defs>
<linearGradient id="paint0_linear_64_279" x1="3.14286" y1="0" x2="3.14286" y2="6.28572" gradientUnits="userSpaceOnUse">
<stop stop-color="#44C6B8"/>
<stop offset="1" stop-color="#3776E0"/>
</linearGradient>
<linearGradient id="paint1_linear_64_279" x1="9" y1="9.98212" x2="9" y2="15.875" gradientUnits="userSpaceOnUse">
<stop stop-color="#44C6B8"/>
<stop offset="1" stop-color="#3776E0"/>
</linearGradient>
</defs>
</svg>
