<svg width="18" height="18" viewBox="0 0 18 18" fill="none" xmlns="http://www.w3.org/2000/svg">
<path fill-rule="evenodd" clip-rule="evenodd" d="M8.2077 0.9375H9.7923C11.1707 0.937485 12.2624 0.937478 13.1168 1.05236C13.9961 1.17057 14.7078 1.41966 15.2691 1.98093C15.8303 2.54221 16.0794 3.25392 16.1977 4.13324C16.3125 4.98764 16.3125 6.07937 16.3125 7.45769V10.5423C16.3125 11.9207 16.3125 13.0124 16.1977 13.8668C16.0794 14.7461 15.8303 15.4578 15.2691 16.0191C14.7078 16.5803 13.9961 16.8294 13.1168 16.9477C12.2624 17.0625 11.1707 17.0625 9.7923 17.0625H8.2077C6.82937 17.0625 5.73764 17.0625 4.88324 16.9477C4.00392 16.8294 3.29221 16.5803 2.73093 16.0191C2.16966 15.4578 1.92057 14.7461 1.80236 13.8668C1.68748 13.0124 1.68749 11.9207 1.6875 10.5423V7.45769C1.68749 6.07937 1.68748 4.98764 1.80236 4.13324C1.92057 3.25392 2.16966 2.54221 2.73093 1.98093C3.29221 1.41966 4.00392 1.17057 4.88324 1.05236C5.73764 0.937478 6.82936 0.937485 8.2077 0.9375ZM5.03314 2.16732C4.27857 2.26877 3.84383 2.45902 3.52643 2.77643C3.20902 3.09383 3.01877 3.52857 2.91732 4.28314C2.81369 5.05388 2.8125 6.06989 2.8125 7.5V10.5C2.8125 11.9301 2.81369 12.9461 2.91732 13.7169C3.01877 14.4714 3.20902 14.9062 3.52643 15.2236C3.84383 15.541 4.27857 15.7313 5.03314 15.8327C5.80388 15.9363 6.81988 15.9375 8.25 15.9375H9.75C11.1801 15.9375 12.1961 15.9363 12.9669 15.8327C13.7214 15.7313 14.1562 15.541 14.4736 15.2236C14.791 14.9062 14.9813 14.4714 15.0827 13.7169C15.1863 12.9461 15.1875 11.9301 15.1875 10.5V7.5C15.1875 6.06989 15.1863 5.05388 15.0827 4.28314C14.9813 3.52857 14.791 3.09383 14.4736 2.77643C14.1562 2.45902 13.7214 2.26877 12.9669 2.16732C12.1961 2.06369 11.1801 2.0625 9.75 2.0625H8.25C6.81988 2.0625 5.80388 2.06369 5.03314 2.16732ZM6.56484 3.5856C8.17718 3.31688 9.82282 3.31688 11.4352 3.5856L11.7542 3.63878C13.053 3.85524 13.8191 5.21671 13.3301 6.43922L12.8309 7.68728C12.5496 8.39048 11.7921 8.77785 11.0573 8.59418C9.70658 8.25645 8.29343 8.25645 6.9427 8.59418C6.2079 8.77785 5.45037 8.39048 5.16908 7.68728L4.66985 6.43922C4.18085 5.21671 4.947 3.85524 6.24576 3.63878L6.56484 3.5856ZM11.2502 4.69529C9.76035 4.44698 8.23965 4.44698 6.74979 4.69529L6.43072 4.74848C5.84036 4.84687 5.49212 5.46572 5.71439 6.0214L6.21362 7.26945C6.28597 7.45035 6.48083 7.54995 6.66984 7.5027C6.78873 7.47301 6.90805 7.4456 7.02773 7.42049L6.59896 6.22452C6.49412 5.93209 6.64619 5.61003 6.93863 5.50519C7.23107 5.40035 7.5531 5.55242 7.65795 5.84486L8.16263 7.25243C9.22155 7.15979 10.2921 7.24322 11.3302 7.5027C11.5192 7.54995 11.714 7.45034 11.7864 7.26945L12.2856 6.0214C12.5079 5.46572 12.1596 4.84687 11.5693 4.74848L11.2502 4.69529ZM5.4375 13.5C5.4375 13.1894 5.68934 12.9375 6 12.9375H12C12.3107 12.9375 12.5625 13.1894 12.5625 13.5C12.5625 13.8107 12.3107 14.0625 12 14.0625H6C5.68934 14.0625 5.4375 13.8107 5.4375 13.5Z" fill="url(#paint0_linear_64_266)"/>
<defs>
<linearGradient id="paint0_linear_64_266" x1="9" y1="0.9375" x2="9" y2="17.0625" gradientUnits="userSpaceOnUse">
<stop stop-color="#42B1CB"/>
<stop offset="1" stop-color="#3776E0"/>
</linearGradient>
</defs>
</svg>
