<svg width="24" height="24" viewBox="0 0 24 24" fill="none" xmlns="http://www.w3.org/2000/svg">
<g clip-path="url(#clip0_164_160)">
<path fill-rule="evenodd" clip-rule="evenodd" d="M2.63903 4.92924C2.93687 4.63149 3.30509 4.41381 3.70953 4.29639C4.11398 4.17898 4.54152 4.16564 4.9525 4.25761C5.36347 4.34958 5.74455 4.54388 6.06037 4.82248C6.37619 5.10108 6.61651 5.45494 6.75903 5.85124C7.98568 5.36185 9.3257 5.2293 10.6244 5.46888C11.9232 5.70846 13.1277 6.3104 14.099 7.20524L14.306 7.40324L22.084 15.1822C22.2562 15.3544 22.3596 15.5835 22.3749 15.8266C22.3902 16.0696 22.3163 16.3098 22.167 16.5022L22.084 16.5962L19.963 18.7172C19.8132 18.8671 19.6196 18.9655 19.4102 18.9982C19.2008 19.0309 18.9864 18.9963 18.798 18.8992L18.687 18.8322L15.103 16.3522C14.0787 17.8371 12.5207 18.8692 10.7539 19.2333C8.98712 19.5974 7.14799 19.2653 5.62006 18.3064C4.09213 17.3475 2.99337 15.8358 2.55292 14.0865C2.11248 12.3372 2.36436 10.4854 3.25603 8.91724C2.90697 8.73636 2.60549 8.4757 2.37607 8.15644C2.14665 7.83718 1.99575 7.46831 1.93564 7.07979C1.87553 6.69127 1.9079 6.29405 2.03012 5.92038C2.15233 5.54672 2.36095 5.20714 2.63903 4.92924ZM5.82103 8.81824C5.30629 9.33407 4.91051 9.95618 4.66143 10.641C4.41234 11.3259 4.31597 12.0569 4.37905 12.7829C4.44212 13.5088 4.66313 14.2123 5.0266 14.8439C5.39007 15.4755 5.8872 16.02 6.4832 16.4394C7.0792 16.8587 7.75965 17.1427 8.47692 17.2714C9.19418 17.4002 9.93092 17.3706 10.6355 17.1847C11.3402 16.9988 11.9957 16.6612 12.5561 16.1954C13.1165 15.7296 13.5684 15.147 13.88 14.4882C13.942 14.357 14.0317 14.2408 14.1431 14.1477C14.2544 14.0546 14.3847 13.9868 14.5248 13.9492C14.665 13.9115 14.8117 13.9048 14.9547 13.9295C15.0977 13.9542 15.2336 14.0097 15.353 14.0922L19.139 16.7122L19.963 15.8892L12.892 8.81824C11.9544 7.88058 10.6826 7.3538 9.35653 7.3538C8.03047 7.3538 6.75871 7.88058 5.82103 8.81824ZM11.477 10.2322C11.7594 10.5099 11.9839 10.8408 12.1377 11.2057C12.2916 11.5707 12.3716 11.9624 12.3733 12.3584C12.3749 12.7545 12.2982 13.1469 12.1474 13.5131C11.9966 13.8793 11.7749 14.212 11.4949 14.4921C11.2149 14.7721 10.8822 14.994 10.516 15.1448C10.1499 15.2957 9.75746 15.3726 9.36145 15.371C8.96543 15.3694 8.57364 15.2895 8.20868 15.1357C7.84372 14.982 7.51281 14.7575 7.23503 14.4752C6.67238 13.9126 6.35628 13.1495 6.35628 12.3537C6.35628 11.558 6.67238 10.7949 7.23503 10.2322C7.79769 9.66958 8.56082 9.35348 9.35653 9.35348C10.1522 9.35348 10.9154 9.66958 11.478 10.2322M8.65003 11.6472C8.55452 11.7395 8.47834 11.8498 8.42593 11.9718C8.37352 12.0938 8.34594 12.2251 8.34478 12.3578C8.34363 12.4906 8.36893 12.6223 8.41921 12.7452C8.46949 12.8681 8.54374 12.9797 8.63764 13.0736C8.73153 13.1675 8.84318 13.2418 8.96608 13.2921C9.08897 13.3423 9.22065 13.3676 9.35343 13.3665C9.48621 13.3653 9.61743 13.3377 9.73944 13.2853C9.86144 13.2329 9.97178 13.1567 10.064 13.0612C10.2517 12.8737 10.3571 12.6194 10.3572 12.3541C10.3573 12.0888 10.252 11.8344 10.0645 11.6467C9.87702 11.4591 9.62266 11.3536 9.35739 11.3535C9.09212 11.3534 8.83767 11.4587 8.65003 11.6462M4.76103 6.34224C4.71491 6.29448 4.65974 6.25639 4.59873 6.23019C4.53773 6.20398 4.47212 6.19019 4.40573 6.18961C4.33934 6.18903 4.2735 6.20169 4.21206 6.22683C4.15061 6.25197 4.09478 6.28909 4.04783 6.33604C4.00089 6.38299 3.96376 6.43881 3.93862 6.50026C3.91348 6.56171 3.90083 6.62755 3.90141 6.69394C3.90198 6.76033 3.91578 6.82594 3.94198 6.88694C3.96819 6.94794 4.00628 7.00311 4.05403 7.04924C4.14833 7.14032 4.27463 7.19071 4.40573 7.18957C4.53683 7.18843 4.66224 7.13585 4.75494 7.04315C4.84765 6.95044 4.90023 6.82504 4.90137 6.69394C4.90251 6.56284 4.85211 6.43654 4.76103 6.34224Z" fill="url(#paint0_linear_164_160)"/>
</g>
<defs>
<linearGradient id="paint0_linear_164_160" x1="12.1416" y1="4.19727" x2="12.1416" y2="19.3774" gradientUnits="userSpaceOnUse">
<stop stop-color="#44C6B8"/>
<stop offset="1" stop-color="#1084FE"/>
</linearGradient>
<clipPath id="clip0_164_160">
<rect width="24" height="24" fill="white"/>
</clipPath>
</defs>
</svg>
